<svg xmlns="http://www.w3.org/2000/svg" viewBox="0 0 100 100">
  <rect width="100" height="100" rx="22" fill="#0d0f14"/>

  <line x1="50" y1="12" x2="50" y2="30" stroke="#f0b90b" stroke-width="2.2" stroke-linecap="round"/>
  <line x1="83" y1="31" x2="67" y2="40" stroke="#f0b90b" stroke-width="2.2" stroke-linecap="round"/>
  <line x1="83" y1="69" x2="67" y2="60" stroke="#f0b90b" stroke-width="2.2" stroke-linecap="round"/>
  <line x1="50" y1="88" x2="50" y2="70" stroke="#f0b90b" stroke-width="2.2" stroke-linecap="round"/>
  <line x1="17" y1="69" x2="33" y2="60" stroke="#f0b90b" stroke-width="2.2" stroke-linecap="round"/>
  <line x1="17" y1="31" x2="33" y2="40" stroke="#f0b90b" stroke-width="2.2" stroke-linecap="round"/>

  <line x1="50" y1="30" x2="50" y2="70" stroke="#f0b90b" stroke-width="2.2" stroke-linecap="round"/>
  <line x1="67" y1="40" x2="33" y2="60" stroke="#f0b90b" stroke-width="2.2" stroke-linecap="round"/>
  <line x1="33" y1="40" x2="67" y2="60" stroke="#f0b90b" stroke-width="2.2" stroke-linecap="round"/>

  <polygon points="50,30 67,40 67,60 50,70 33,60 33,40"
    fill="rgba(240,185,11,0.07)" stroke="#f0b90b" stroke-width="2" stroke-linejoin="round"/>

  <polygon points="50,12 83,31 83,69 50,88 17,69 17,31"
    fill="none" stroke="#f0b90b" stroke-width="2.5" stroke-linejoin="round"/>

  <circle cx="50" cy="50" r="7" fill="none" stroke="#f0b90b" stroke-width="2.2"/>
  <circle cx="50" cy="50" r="3" fill="#f0b90b"/>

  <circle cx="50" cy="12" r="3.5" fill="#f0b90b"/>
  <circle cx="83" cy="31" r="3.5" fill="#f0b90b"/>
  <circle cx="83" cy="69" r="3.5" fill="#f0b90b"/>
  <circle cx="50" cy="88" r="3.5" fill="#f0b90b"/>
  <circle cx="17" cy="69" r="3.5" fill="#f0b90b"/>
  <circle cx="17" cy="31" r="3.5" fill="#f0b90b"/>
</svg>
