<svg viewBox="4 4 92 92" xmlns="http://www.w3.org/2000/svg" fill="none">
  <rect x="18" y="20" width="64" height="60" rx="3" stroke="#00d4aa" stroke-width="2.2" stroke-linecap="round" stroke-linejoin="round"/>
  <line x1="50" y1="20" x2="50" y2="80" stroke="#00d4aa" stroke-width="2.2" stroke-linecap="round"/>
  <rect x="19" y="21" width="30" height="58" rx="1" fill="#00d4aa" fill-opacity="0.04"/>
  <line x1="24" y1="36" x2="44" y2="36" stroke="#00d4aa" stroke-width="1.2" stroke-linecap="round" stroke-opacity="0.4"/>
  <line x1="24" y1="44" x2="44" y2="44" stroke="#00d4aa" stroke-width="1.2" stroke-linecap="round" stroke-opacity="0.4"/>
  <line x1="24" y1="52" x2="44" y2="52" stroke="#00d4aa" stroke-width="1.2" stroke-linecap="round" stroke-opacity="0.4"/>
  <line x1="24" y1="60" x2="38" y2="60" stroke="#00d4aa" stroke-width="1.2" stroke-linecap="round" stroke-opacity="0.4"/>
  <line x1="57" y1="51" x2="57" y2="55" stroke="#00d4aa" stroke-width="1.8" stroke-linecap="round"/>
  <rect x="54.5" y="55" width="5" height="8" rx="0.8" fill="#00d4aa" stroke="#00d4aa" stroke-width="1.8"/>
  <line x1="57" y1="63" x2="57" y2="67" stroke="#00d4aa" stroke-width="1.8" stroke-linecap="round"/>
  <line x1="65" y1="44" x2="65" y2="48" stroke="#00d4aa" stroke-width="1.8" stroke-linecap="round"/>
  <rect x="62.5" y="48" width="5" height="11" rx="0.8" fill="#00d4aa" stroke="#00d4aa" stroke-width="1.8"/>
  <line x1="65" y1="59" x2="65" y2="63" stroke="#00d4aa" stroke-width="1.8" stroke-linecap="round"/>
  <line x1="73" y1="37" x2="73" y2="41" stroke="#00d4aa" stroke-width="1.8" stroke-linecap="round"/>
  <rect x="70.5" y="41" width="5" height="14" rx="0.8" fill="#00d4aa" stroke="#00d4aa" stroke-width="1.8"/>
  <line x1="73" y1="55" x2="73" y2="59" stroke="#00d4aa" stroke-width="1.8" stroke-linecap="round"/>
</svg>
